<?xml version="1.0" standalone="no"?>
<!DOCTYPE svg PUBLIC "-//W3C//DTD SVG 20010904//EN"
 "http://www.w3.org/TR/2001/REC-SVG-20010904/DTD/svg10.dtd">
<svg version="1.0" xmlns="http://www.w3.org/2000/svg"
 width="1034.000000pt" height="1280.000000pt" viewBox="0 0 1034.000000 1280.000000"
 preserveAspectRatio="xMidYMid meet">
<metadata>
Created by potrace 1.15, written by Peter Selinger 2001-2017
</metadata>
<g transform="translate(0.000000,1280.000000) scale(0.100000,-0.100000)"
fill="#000000" stroke="none">
<path d="M3154 12790 c-106 -19 -231 -73 -298 -128 l-29 -24 -11 33 c-6 19
-26 43 -46 57 -29 20 -43 23 -84 18 -57 -6 -159 -52 -229 -103 l-51 -36 -142
12 c-174 14 -519 14 -674 1 -266 -23 -573 -71 -790 -124 -166 -41 -150 -41
-150 -4 0 25 -3 29 -10 18 -5 -8 -10 -24 -10 -35 0 -16 -10 -24 -43 -32 -40
-11 -43 -10 -72 18 -20 19 -41 29 -60 29 l-30 0 35 -18 c64 -32 52 -44 -84
-84 -163 -49 -211 -72 -226 -109 -29 -69 23 -210 109 -294 46 -45 49 -53 61
-122 6 -41 10 -77 7 -79 -2 -3 -24 0 -48 5 -71 17 -79 11 -14 -9 55 -18 63
-23 83 -65 12 -25 22 -47 22 -49 0 -2 -67 -29 -150 -62 -82 -32 -148 -59 -146
-61 1 -1 69 20 151 47 l149 50 46 -44 c25 -24 71 -62 102 -85 48 -34 58 -47
63 -78 21 -146 28 -156 123 -184 63 -18 68 -31 24 -60 -32 -21 -37 -30 -40
-66 -4 -52 24 -108 86 -175 83 -89 118 -96 205 -42 33 20 70 37 83 37 37 0
357 -163 474 -241 118 -79 257 -200 340 -295 39 -45 72 -71 115 -92 38 -18 84
-52 126 -94 123 -124 205 -257 432 -698 159 -310 222 -417 266 -457 11 -11 21
-24 21 -30 0 -37 -201 -255 -362 -392 -149 -128 -411 -319 -699 -510 -221
-147 -290 -198 -347 -258 -93 -98 -165 -201 -218 -312 -45 -93 -84 -218 -71
-230 12 -12 54 24 98 85 24 33 47 60 50 60 3 1 10 -72 17 -161 6 -90 18 -186
26 -214 18 -56 54 -110 66 -97 5 4 10 85 12 178 4 195 19 250 77 280 l31 16
19 -43 c9 -24 32 -97 50 -163 38 -136 52 -170 82 -186 40 -21 44 1 24 123 -27
155 -25 244 7 305 20 41 29 49 60 54 54 8 77 28 143 120 63 88 104 122 164
139 53 15 179 12 300 -6 58 -9 141 -17 183 -17 43 -1 78 -3 78 -5 0 -12 -32
-57 -82 -117 -78 -91 -100 -130 -143 -250 -144 -396 -159 -728 -41 -908 l31
-48 3 34 c2 19 -4 85 -12 146 -9 62 -16 123 -16 138 0 26 0 26 21 7 12 -10 53
-62 92 -114 79 -107 135 -170 153 -170 7 0 16 10 19 21 7 22 0 34 -94 153 -38
49 -75 125 -66 134 7 7 96 -44 185 -108 152 -107 173 -120 202 -120 48 0 45
22 -12 70 -125 104 -226 214 -258 280 -39 79 -62 181 -62 276 0 100 10 123 79
167 68 43 92 45 141 16 68 -42 84 -85 64 -165 -16 -60 -15 -115 1 -121 11 -3
106 144 130 201 19 46 19 142 -1 218 -23 89 -17 109 37 136 54 26 201 47 276
38 67 -8 120 -26 268 -91 139 -61 213 -79 288 -70 l53 7 45 -54 c140 -165 281
-390 409 -653 99 -203 157 -340 295 -699 102 -266 132 -331 155 -331 7 0 25
20 40 44 47 82 65 56 34 -49 -39 -130 4 -223 284 -620 100 -141 129 -199 182
-365 59 -187 152 -379 301 -623 38 -61 69 -118 69 -126 0 -24 -82 -100 -145
-132 -33 -18 -139 -62 -235 -99 -181 -70 -361 -155 -475 -225 -36 -22 -105
-60 -154 -84 -49 -25 -90 -51 -93 -58 -3 -10 -3 -181 2 -326 0 -7 12 -18 28
-24 15 -7 36 -23 48 -37 21 -25 21 -25 65 -8 25 9 66 17 93 17 27 0 66 5 88
12 48 14 121 77 138 118 7 18 19 30 29 29 39 -4 61 3 88 25 23 19 33 22 53 14
14 -6 57 -11 95 -11 124 -1 240 57 401 197 50 45 120 98 155 118 63 37 65 38
170 38 123 0 149 -7 243 -67 l69 -44 -49 -46 c-148 -137 -280 -191 -721 -298
-369 -90 -488 -128 -529 -169 -18 -18 -35 -45 -38 -59 -3 -15 -8 -37 -11 -50
-2 -13 -15 -29 -29 -35 -32 -14 -51 -76 -70 -235 -9 -71 -23 -144 -31 -164
-14 -33 -14 -38 1 -55 21 -22 87 -24 135 -4 31 13 34 13 44 -8 17 -34 47 -30
144 18 50 25 93 46 95 46 3 0 8 -16 12 -35 6 -34 39 -69 55 -59 4 2 31 9 60
14 77 15 91 32 83 97 l-6 53 34 14 c19 8 81 20 138 25 128 14 171 35 274 140
60 61 96 88 173 128 123 64 191 88 441 157 211 58 323 98 407 144 64 34 90 86
105 201 15 128 20 131 184 130 213 -2 246 22 246 174 l0 85 53 20 c78 31 180
58 292 78 152 28 511 25 703 -5 438 -67 779 -215 993 -430 165 -165 229 -334
208 -545 -10 -98 -55 -244 -99 -322 -96 -166 -314 -272 -670 -324 -225 -33
-359 -40 -1027 -55 -837 -19 -1117 -42 -1391 -115 -774 -207 -1435 -663 -1823
-1259 -169 -259 -285 -564 -277 -730 l3 -63 75 128 c173 298 320 493 525 699
226 227 441 387 710 526 432 225 881 335 1439 355 197 7 389 -3 731 -37 265
-26 725 -31 895 -10 404 50 663 124 903 258 299 167 488 397 559 679 29 117
31 328 4 452 -97 452 -415 874 -969 1285 -43 32 -76 64 -74 70 2 7 26 13 53
15 27 2 52 7 57 11 14 14 -28 37 -93 50 -78 15 -155 49 -193 85 -37 37 -60 87
-81 181 -22 97 -46 146 -86 177 -30 23 -31 26 -54 213 -236 1853 -654 2980
-1466 3955 -147 176 -504 531 -620 616 -52 39 -169 122 -260 184 -336 232
-451 328 -466 385 -5 21 -1 32 22 56 15 16 24 32 20 36 -4 4 -67 11 -139 14
-193 9 -248 34 -334 149 -83 112 -230 229 -388 308 -159 79 -392 146 -554 159
l-85 6 -115 102 c-238 210 -538 535 -661 718 -64 94 -75 133 -39 139 14 2 -10
19 -81 58 -85 46 -100 58 -96 75 39 164 48 226 44 331 -4 101 -7 118 -36 177
-40 80 -102 138 -181 168 -64 24 -206 33 -287 19z"/>
</g>
</svg>
